<svg width="6482" height="717" viewBox="0 0 6482 717" fill="none" xmlns="http://www.w3.org/2000/svg">
<path d="M2630.29 420.391C2630.29 409.323 2626.7 400.859 2619.52 395C2612.33 389.01 2599.4 382.76 2580.71 376.25C2562.03 369.609 2547.24 363.099 2536.34 356.719C2506.65 339.271 2491.8 315.768 2491.8 286.211C2491.8 270.846 2495.75 257.174 2503.65 245.195C2511.67 233.086 2523.11 223.646 2537.96 216.875C2552.93 210.104 2569.7 206.719 2588.26 206.719C2606.94 206.719 2623.59 210.43 2638.2 217.852C2652.81 225.143 2664.12 235.495 2672.15 248.906C2680.29 262.318 2684.36 277.552 2684.36 294.609H2630.47C2630.47 281.589 2626.7 271.497 2619.16 264.336C2611.61 257.044 2601.01 253.398 2587.36 253.398C2574.19 253.398 2563.95 256.458 2556.64 262.578C2549.34 268.568 2545.69 276.51 2545.69 286.406C2545.69 295.651 2549.94 303.398 2558.44 309.648C2567.06 315.898 2579.7 321.758 2596.34 327.227C2627 337.253 2649.33 349.688 2663.35 364.531C2677.36 379.375 2684.36 397.865 2684.36 420C2684.36 444.609 2675.8 463.945 2658.68 478.008C2641.55 491.94 2618.5 498.906 2589.52 498.906C2569.4 498.906 2551.07 494.935 2534.55 486.992C2518.02 478.919 2505.39 467.917 2496.65 453.984C2488.02 440.052 2483.71 423.906 2483.71 405.547H2537.78C2537.78 436.927 2555.03 452.617 2589.52 452.617C2602.33 452.617 2612.33 449.818 2619.52 444.219C2626.7 438.49 2630.29 430.547 2630.29 420.391Z" fill="black"/>
<path d="M2768.25 306.719C2782.02 288.75 2799.33 279.766 2820.17 279.766C2862.32 279.766 2883.7 306.393 2884.3 359.648V495H2832.38V361.211C2832.38 349.102 2829.99 340.182 2825.2 334.453C2820.41 328.594 2812.44 325.664 2801.3 325.664C2786.1 325.664 2775.08 332.044 2768.25 344.805V495H2716.34V195H2768.25V306.719Z" fill="black"/>
<path d="M3036.09 495C3033.69 489.922 3031.95 483.607 3030.88 476.055C3018.3 491.289 3001.96 498.906 2981.84 498.906C2962.8 498.906 2946.99 492.917 2934.41 480.938C2921.96 468.958 2915.73 453.854 2915.73 435.625C2915.73 413.229 2923.34 396.042 2938.55 384.062C2953.87 372.083 2975.97 366.029 3004.83 365.898H3028.72V353.789C3028.72 344.023 3026.39 336.211 3021.72 330.352C3017.16 324.492 3009.92 321.562 2999.98 321.562C2991.24 321.562 2984.35 323.841 2979.32 328.398C2974.41 332.956 2971.96 339.206 2971.96 347.148H2920.04C2920.04 334.909 2923.52 323.581 2930.46 313.164C2937.41 302.747 2947.23 294.609 2959.92 288.75C2972.62 282.76 2986.87 279.766 3002.67 279.766C3026.63 279.766 3045.61 286.341 3059.62 299.492C3073.75 312.513 3080.82 330.872 3080.82 354.57V446.172C3080.93 466.224 3083.51 481.393 3088.54 491.68V495H3036.09ZM2993.15 455.742C3000.82 455.742 3007.88 453.919 3014.35 450.273C3020.82 446.497 3025.61 441.484 3028.72 435.234V398.906H3009.32C2983.33 398.906 2969.5 408.672 2967.83 428.203L2967.65 431.523C2967.65 438.555 2969.92 444.349 2974.47 448.906C2979.02 453.464 2985.25 455.742 2993.15 455.742Z" fill="black"/>
<path d="M3191.29 410.234L3172.61 430.547V495H3120.69V195H3172.61V361.211L3182.67 347.148L3232.43 283.672H3294.76L3224.52 371.758L3300.87 495H3241.23L3191.29 410.234Z" fill="black"/>
<path d="M3403.08 498.906C3374.58 498.906 3351.34 489.401 3333.38 470.391C3315.54 451.38 3306.62 426.055 3306.62 394.414V388.945C3306.62 367.721 3310.39 348.776 3317.93 332.109C3325.48 315.312 3336.13 302.422 3349.91 293.438C3363.8 284.323 3379.61 279.766 3397.33 279.766C3423.92 279.766 3444.81 288.88 3460.02 307.109C3475.35 325.339 3483.02 351.185 3483.02 384.648V407.695H3359.25C3360.92 421.497 3365.95 432.565 3374.34 440.898C3382.84 449.232 3393.56 453.398 3406.49 453.398C3426.49 453.398 3442.12 445.521 3453.38 429.766L3478.88 460.82C3471.1 472.799 3460.56 482.174 3447.27 488.945C3433.98 495.586 3419.25 498.906 3403.08 498.906ZM3397.15 325.469C3386.85 325.469 3378.47 329.245 3372 336.797C3365.65 344.349 3361.58 355.156 3359.79 369.219H3432V364.727C3431.76 352.227 3428.65 342.591 3422.66 335.82C3416.67 328.919 3408.17 325.469 3397.15 325.469Z" fill="black"/>
<ellipse cx="2255.18" cy="560" rx="124.163" ry="32" fill="black" fill-opacity="0.15"/>
<mask id="path-3-outside-1" maskUnits="userSpaceOnUse" x="2159.63" y="428.585" width="188" height="152" fill="black">
<rect fill="white" x="2159.63" y="428.585" width="188" height="152"/>
<path fill-rule="evenodd" clip-rule="evenodd" d="M2260.68 445.943C2260.68 441.879 2257.38 438.585 2253.32 438.585V438.585C2249.26 438.585 2245.96 441.879 2245.96 445.943V517.098C2245.96 526.871 2238.15 534.788 2228.41 535.621C2194.35 538.535 2169.63 547.266 2169.63 557.585C2169.63 558.127 2169.97 558.59 2170.46 558.815C2185.8 565.799 2217.15 570.585 2253.32 570.585C2289.49 570.585 2320.84 565.799 2336.18 558.815C2336.67 558.59 2337.02 558.127 2337.02 557.585C2337.02 547.266 2312.29 538.535 2278.23 535.621C2268.5 534.788 2260.68 526.871 2260.68 517.098V445.943Z"/>
</mask>
<path fill-rule="evenodd" clip-rule="evenodd" d="M2260.68 445.943C2260.68 441.879 2257.38 438.585 2253.32 438.585V438.585C2249.26 438.585 2245.96 441.879 2245.96 445.943V517.098C2245.96 526.871 2238.15 534.788 2228.41 535.621C2194.35 538.535 2169.63 547.266 2169.63 557.585C2169.63 558.127 2169.97 558.59 2170.46 558.815C2185.8 565.799 2217.15 570.585 2253.32 570.585C2289.49 570.585 2320.84 565.799 2336.18 558.815C2336.67 558.59 2337.02 558.127 2337.02 557.585C2337.02 547.266 2312.29 538.535 2278.23 535.621C2268.5 534.788 2260.68 526.871 2260.68 517.098V445.943Z" fill="#00B8F0"/>
<path d="M2170.46 558.815L2174.61 549.713L2174.61 549.713L2170.46 558.815ZM2336.18 558.815L2332.03 549.713L2332.03 549.713L2336.18 558.815ZM2228.41 535.621L2227.56 525.657L2228.41 535.621ZM2255.96 517.098V445.943H2235.96V517.098H2255.96ZM2179.63 557.585C2179.63 559.315 2178.57 559.394 2180.33 557.972C2181.98 556.631 2184.99 554.942 2189.7 553.212C2199 549.791 2212.74 546.998 2229.26 545.584L2227.56 525.657C2210.02 527.158 2194.36 530.188 2182.8 534.44C2177.06 536.548 2171.77 539.158 2167.72 542.448C2163.77 545.655 2159.63 550.695 2159.63 557.585H2179.63ZM2174.61 549.713C2177.13 550.861 2179.63 553.634 2179.63 557.585H2159.63C2159.63 562.62 2162.81 566.319 2166.32 567.916L2174.61 549.713ZM2253.32 560.585C2217.48 560.585 2187.92 555.776 2174.61 549.713L2166.32 567.916C2183.69 575.823 2216.82 580.585 2253.32 580.585V560.585ZM2332.03 549.713C2318.72 555.776 2289.17 560.585 2253.32 560.585V580.585C2289.82 580.585 2322.95 575.823 2340.32 567.916L2332.03 549.713ZM2327.02 557.585C2327.02 553.634 2329.51 550.861 2332.03 549.713L2340.32 567.916C2343.83 566.319 2347.02 562.62 2347.02 557.585H2327.02ZM2277.38 545.584C2293.9 546.998 2307.64 549.791 2316.95 553.212C2321.65 554.942 2324.67 556.631 2326.32 557.972C2328.07 559.394 2327.02 559.315 2327.02 557.585H2347.02C2347.02 550.695 2342.87 545.655 2338.93 542.448C2334.87 539.158 2329.58 536.548 2323.85 534.44C2312.28 530.188 2296.62 527.158 2279.09 525.657L2277.38 545.584ZM2250.68 445.943V517.098H2270.68V445.943H2250.68ZM2279.09 525.657C2274.12 525.232 2270.68 521.284 2270.68 517.098H2250.68C2250.68 532.459 2262.87 544.343 2277.38 545.584L2279.09 525.657ZM2235.96 517.098C2235.96 521.284 2232.52 525.232 2227.56 525.657L2229.26 545.584C2243.77 544.343 2255.96 532.459 2255.96 517.098H2235.96ZM2253.32 448.585C2251.86 448.585 2250.68 447.402 2250.68 445.943H2270.68C2270.68 436.356 2262.91 428.585 2253.32 428.585V448.585ZM2253.32 428.585C2243.73 428.585 2235.96 436.356 2235.96 445.943H2255.96C2255.96 447.402 2254.78 448.585 2253.32 448.585V428.585Z" fill="#45413C" mask="url(#path-3-outside-1)"/>
<mask id="path-5-outside-2" maskUnits="userSpaceOnUse" x="2155.03" y="178.997" width="197" height="304" fill="black">
<rect fill="white" x="2155.03" y="178.997" width="197" height="304"/>
<path fill-rule="evenodd" clip-rule="evenodd" d="M2327.48 190.06C2328.12 189.826 2328.79 190.273 2328.83 190.948L2341.61 372.547C2341.61 372.567 2341.6 372.585 2341.58 372.585V372.585C2341.56 372.585 2341.54 372.601 2341.54 372.622C2341.59 373.936 2341.61 375.257 2341.61 376.585C2341.61 429.604 2302.08 472.585 2253.32 472.585C2204.56 472.585 2165.03 429.604 2165.03 376.585C2165.03 375.257 2165.05 373.936 2165.1 372.622C2165.1 372.601 2165.09 372.585 2165.07 372.585V372.585C2165.04 372.585 2165.03 372.567 2165.03 372.547L2177.81 190.948C2177.85 190.273 2178.53 189.826 2179.16 190.06C2185.66 192.454 2216.59 203.085 2253.32 203.085C2290.05 203.085 2320.98 192.454 2327.48 190.06Z"/>
</mask>
<path fill-rule="evenodd" clip-rule="evenodd" d="M2327.48 190.06C2328.12 189.826 2328.79 190.273 2328.83 190.948L2341.61 372.547C2341.61 372.567 2341.6 372.585 2341.58 372.585V372.585C2341.56 372.585 2341.54 372.601 2341.54 372.622C2341.59 373.936 2341.61 375.257 2341.61 376.585C2341.61 429.604 2302.08 472.585 2253.32 472.585C2204.56 472.585 2165.03 429.604 2165.03 376.585C2165.03 375.257 2165.05 373.936 2165.1 372.622C2165.1 372.601 2165.09 372.585 2165.07 372.585V372.585C2165.04 372.585 2165.03 372.567 2165.03 372.547L2177.81 190.948C2177.85 190.273 2178.53 189.826 2179.16 190.06C2185.66 192.454 2216.59 203.085 2253.32 203.085C2290.05 203.085 2320.98 192.454 2327.48 190.06Z" fill="#00B8F0"/>
<path d="M2253.32 203.085L2253.32 193.085L2253.32 193.085L2253.32 203.085ZM2177.81 190.948L2167.83 190.246L2177.81 190.948ZM2179.16 190.06L2175.7 199.444L2179.16 190.06ZM2165.03 372.547L2155.05 371.845L2165.03 372.547ZM2341.54 372.622L2351.53 372.248L2341.54 372.622ZM2328.83 190.948L2338.81 190.246L2328.83 190.948ZM2327.48 190.06L2330.94 199.444L2327.48 190.06ZM2341.61 372.547L2331.64 373.248L2341.61 372.547ZM2351.59 371.845L2338.81 190.246L2318.86 191.65L2331.64 373.248L2351.59 371.845ZM2351.61 376.585C2351.61 375.133 2351.59 373.687 2351.53 372.248L2331.55 372.995C2331.59 374.185 2331.61 375.382 2331.61 376.585H2351.61ZM2253.32 482.585C2308.38 482.585 2351.61 434.323 2351.61 376.585H2331.61C2331.61 424.885 2295.79 462.585 2253.32 462.585V482.585ZM2253.32 462.585C2210.85 462.585 2175.03 424.885 2175.03 376.585H2155.03C2155.03 434.323 2198.26 482.585 2253.32 482.585V462.585ZM2175.03 376.585C2175.03 375.382 2175.05 374.185 2175.09 372.995L2155.11 372.248C2155.05 373.687 2155.03 375.133 2155.03 376.585H2175.03ZM2175 373.248L2187.78 191.65L2167.83 190.246L2155.05 371.845L2175 373.248ZM2175.7 199.444C2182.67 202.009 2214.88 213.085 2253.32 213.085L2253.32 193.085C2218.31 193.085 2188.65 182.9 2182.62 180.676L2175.7 199.444ZM2324.03 180.676C2317.99 182.9 2288.34 193.085 2253.32 193.085V213.085C2291.76 213.085 2323.97 202.009 2330.94 199.444L2324.03 180.676ZM2187.78 191.65C2187.38 197.409 2181.52 201.585 2175.7 199.444L2182.62 180.676C2175.53 178.067 2168.33 183.137 2167.83 190.246L2187.78 191.65ZM2165.07 362.585C2170.84 362.585 2175.41 367.484 2175 373.248L2155.05 371.845C2154.65 377.65 2159.25 382.585 2165.07 382.585V362.585ZM2341.58 362.585C2335.89 362.585 2331.34 367.31 2331.55 372.995L2351.53 372.248C2351.74 377.893 2347.23 382.585 2341.58 382.585V362.585ZM2175.09 372.995C2175.31 367.31 2170.76 362.585 2165.07 362.585V382.585C2159.42 382.585 2154.9 377.893 2155.11 372.248L2175.09 372.995ZM2338.81 190.246C2338.31 183.137 2331.11 178.067 2324.03 180.676L2330.94 199.444C2325.12 201.585 2319.26 197.409 2318.86 191.65L2338.81 190.246ZM2331.64 373.248C2331.23 367.484 2335.8 362.585 2341.58 362.585V382.585C2347.4 382.585 2352 377.65 2351.59 371.845L2331.64 373.248Z" fill="#45413C" mask="url(#path-5-outside-2)"/>
<ellipse cx="2253.32" cy="260.585" rx="68.0597" ry="14" fill="#BC5E00"/>
<path fill-rule="evenodd" clip-rule="evenodd" d="M2281.96 201.059C2290.86 199.833 2298.93 198.189 2305.76 196.529L2302.73 305.105C2302.7 306.209 2301.78 307.075 2300.68 307.038L2281.03 306.391C2279.92 306.354 2279.05 305.43 2279.08 304.326L2281.96 201.059Z" fill="#9F5AE5"/>
<path d="M2281.96 201.059L2281.28 196.106L2277.08 196.684L2276.96 200.92L2281.96 201.059ZM2305.76 196.529L2310.76 196.668L2310.94 190.124L2304.58 191.67L2305.76 196.529ZM2302.73 305.105L2307.73 305.244L2307.73 305.244L2302.73 305.105ZM2300.68 307.038L2300.51 312.035L2300.51 312.035L2300.68 307.038ZM2281.03 306.391L2281.19 301.393L2281.19 301.393L2281.03 306.391ZM2279.08 304.326L2274.08 304.186L2274.08 304.186L2279.08 304.326ZM2282.64 206.013C2291.74 204.76 2299.97 203.081 2306.94 201.387L2304.58 191.67C2297.89 193.296 2289.99 194.906 2281.28 196.106L2282.64 206.013ZM2307.73 305.244L2310.76 196.668L2300.76 196.39L2297.73 304.966L2307.73 305.244ZM2300.51 312.035C2304.39 312.163 2307.62 309.118 2307.73 305.244L2297.73 304.966C2297.78 303.299 2299.18 301.986 2300.84 302.041L2300.51 312.035ZM2280.86 311.388L2300.51 312.035L2300.84 302.041L2281.19 301.393L2280.86 311.388ZM2274.08 304.186C2273.98 308.041 2277.01 311.261 2280.86 311.388L2281.19 301.393C2282.84 301.448 2284.13 302.819 2284.08 304.465L2274.08 304.186ZM2276.96 200.92L2274.08 304.186L2284.08 304.465L2286.96 201.199L2276.96 200.92Z" fill="#45413C"/>
<path fill-rule="evenodd" clip-rule="evenodd" d="M2188.08 260.585H2185.26L2178.82 363.016C2178.82 363.034 2178.84 363.049 2178.85 363.049C2178.87 363.049 2178.89 363.063 2178.89 363.08C2178.84 364.324 2178.82 365.574 2178.82 366.83C2178.82 416.952 2212.18 457.585 2253.32 457.585C2294.46 457.585 2327.82 416.952 2327.82 366.83C2327.82 365.574 2327.8 364.324 2327.76 363.08C2327.76 363.063 2327.77 363.049 2327.79 363.049C2327.8 363.049 2327.82 363.034 2327.82 363.016L2321.38 260.585H2318.56C2310.19 266.368 2284.15 270.585 2253.32 270.585C2222.49 270.585 2196.45 266.368 2188.08 260.585Z" fill="#FF8A14"/>
<path fill-rule="evenodd" clip-rule="evenodd" d="M2188.08 260.585H2185.26L2178.82 363.016C2178.82 363.034 2178.84 363.049 2178.85 363.049C2178.87 363.049 2178.89 363.063 2178.89 363.08C2178.84 364.324 2178.82 365.574 2178.82 366.83C2178.82 416.952 2212.18 457.585 2253.32 457.585C2294.46 457.585 2327.82 416.952 2327.82 366.83C2327.82 365.574 2327.8 364.324 2327.76 363.08C2327.76 363.063 2327.77 363.049 2327.79 363.049C2327.8 363.049 2327.82 363.034 2327.82 363.016L2321.38 260.585H2318.56C2310.19 266.368 2284.15 270.585 2253.32 270.585C2222.49 270.585 2196.45 266.368 2188.08 260.585Z" fill="#FF8A14"/>
<path fill-rule="evenodd" clip-rule="evenodd" d="M2179.29 377.073C2183.47 422.373 2215.02 457.585 2253.32 457.585C2291.75 457.585 2323.38 422.139 2327.39 376.622C2303.26 382.489 2278.16 385.585 2252.4 385.585C2227.31 385.585 2202.85 382.648 2179.29 377.073Z" fill="#FF6242"/>
<path fill-rule="evenodd" clip-rule="evenodd" d="M2174.27 419.39C2168.35 406.503 2165.03 391.966 2165.03 376.585C2165.03 375.257 2165.05 373.936 2165.1 372.622C2165.1 372.601 2165.09 372.585 2165.07 372.585C2165.04 372.585 2165.03 372.567 2165.03 372.547L2177.81 190.948C2177.85 190.273 2178.53 189.826 2179.16 190.06C2185.66 192.454 2216.59 203.085 2253.32 203.085C2290.05 203.085 2320.98 192.454 2327.48 190.06C2328.12 189.826 2328.79 190.273 2328.83 190.948L2334.32 268.967C2309.65 345.555 2248.92 403.719 2174.27 419.39Z" fill="white" fill-opacity="0.29"/>
<mask id="path-14-outside-3" maskUnits="userSpaceOnUse" x="2172.03" y="166.087" width="165" height="47" fill="black">
<rect fill="white" x="2172.03" y="166.087" width="165" height="47"/>
<path fill-rule="evenodd" clip-rule="evenodd" d="M2182.81 191.343C2181.77 190.991 2181.77 188.178 2182.81 187.826C2193.56 184.208 2220.72 176.253 2252.32 176.087C2252.87 176.084 2253.32 176.532 2253.32 177.085V189.585L2253.32 177.085C2253.32 176.532 2253.77 176.084 2254.33 176.087C2288.85 176.269 2318.08 185.747 2326.38 188.71C2327.23 189.014 2327.23 190.155 2326.38 190.46C2317.99 193.451 2288.28 203.085 2253.32 203.085C2221.29 203.085 2193.67 195 2182.81 191.343Z"/>
</mask>
<path fill-rule="evenodd" clip-rule="evenodd" d="M2182.81 191.343C2181.77 190.991 2181.77 188.178 2182.81 187.826C2193.56 184.208 2220.72 176.253 2252.32 176.087C2252.87 176.084 2253.32 176.532 2253.32 177.085V189.585L2253.32 177.085C2253.32 176.532 2253.77 176.084 2254.33 176.087C2288.85 176.269 2318.08 185.747 2326.38 188.71C2327.23 189.014 2327.23 190.155 2326.38 190.46C2317.99 193.451 2288.28 203.085 2253.32 203.085C2221.29 203.085 2193.67 195 2182.81 191.343Z" fill="#00B8F0"/>
<path d="M2326.38 188.71L2329.74 179.291L2326.38 188.71ZM2326.38 190.46L2329.74 199.878L2326.38 190.46ZM2253.32 177.085L2243.32 177.085L2253.32 177.085ZM2254.33 176.087L2254.27 186.087L2254.33 176.087ZM2182.81 187.826L2186.01 197.303L2186.01 197.303L2182.81 187.826ZM2182.81 191.343L2179.62 200.82L2182.81 191.343ZM2252.26 166.087C2219.16 166.261 2190.86 174.562 2179.62 178.349L2186.01 197.303C2196.25 193.854 2222.27 186.245 2252.37 186.087L2252.26 166.087ZM2263.32 189.585V177.085H2243.32V189.585H2263.32ZM2243.32 177.085L2243.32 189.585L2263.32 189.585L2263.32 177.085L2243.32 177.085ZM2329.74 179.291C2320.96 176.158 2290.52 166.277 2254.38 166.087L2254.27 186.087C2287.18 186.26 2315.19 195.336 2323.02 198.128L2329.74 179.291ZM2253.32 213.085C2289.93 213.085 2320.88 203.041 2329.74 199.878L2323.02 181.041C2315.11 183.861 2286.64 193.085 2253.32 193.085V213.085ZM2179.62 200.82C2190.98 204.646 2219.76 213.085 2253.32 213.085V193.085C2222.82 193.085 2196.36 185.353 2186.01 181.867L2179.62 200.82ZM2323.02 198.128C2315.02 195.273 2315.02 183.896 2323.02 181.041L2329.74 199.878C2339.44 196.415 2339.44 182.754 2329.74 179.291L2323.02 198.128ZM2263.32 177.085C2263.32 182.097 2259.24 186.113 2254.27 186.087L2254.38 166.087C2248.3 166.056 2243.32 170.967 2243.32 177.085L2263.32 177.085ZM2179.62 178.349C2175.42 179.763 2173.62 183.111 2172.97 184.683C2172.24 186.473 2172.03 188.214 2172.03 189.585C2172.03 190.955 2172.24 192.696 2172.97 194.487C2173.62 196.059 2175.42 199.406 2179.62 200.82L2186.01 181.867C2189.68 183.105 2191.1 185.968 2191.48 186.903C2191.95 188.056 2192.03 189.006 2192.03 189.585C2192.03 190.164 2191.95 191.113 2191.48 192.266C2191.1 193.201 2189.68 196.065 2186.01 197.303L2179.62 178.349ZM2252.37 186.087C2247.4 186.113 2243.32 182.097 2243.32 177.085H2263.32C2263.32 170.967 2258.34 166.056 2252.26 166.087L2252.37 186.087Z" fill="#45413C" mask="url(#path-14-outside-3)"/>
<mask id="path-16-outside-4" maskUnits="userSpaceOnUse" x="2103.04" y="115.613" width="124.089" height="119.391" fill="black">
<rect fill="white" x="2103.04" y="115.613" width="124.089" height="119.391"/>
<path fill-rule="evenodd" clip-rule="evenodd" d="M2152.78 154.107C2133.54 167.486 2126.54 193.845 2135.29 215.94C2136.93 220.096 2141.75 221.122 2145.38 218.6L2209.73 173.863C2213.36 171.341 2214.53 166.15 2211.75 162.783C2196.97 144.883 2172.03 140.727 2152.78 154.107Z"/>
</mask>
<path fill-rule="evenodd" clip-rule="evenodd" d="M2152.78 154.107C2133.54 167.486 2126.54 193.845 2135.29 215.94C2136.93 220.096 2141.75 221.122 2145.38 218.6L2209.73 173.863C2213.36 171.341 2214.53 166.15 2211.75 162.783C2196.97 144.883 2172.03 140.727 2152.78 154.107Z" fill="#D6B027"/>
<path d="M2211.75 162.783L2205.89 168.372L2211.75 162.783ZM2142.41 212.508C2135.03 193.86 2141.04 171.985 2156.84 161.002L2148.73 147.211C2126.03 162.988 2118.06 193.831 2128.16 219.372L2142.41 212.508ZM2205.68 166.967L2141.33 211.704L2149.44 225.496L2213.79 180.759L2205.68 166.967ZM2156.84 161.002C2172.64 150.02 2193.42 153.264 2205.89 168.372L2217.6 157.194C2200.52 136.502 2171.42 131.433 2148.73 147.211L2156.84 161.002ZM2213.79 180.759C2220.71 175.949 2224.02 164.97 2217.6 157.194L2205.89 168.372C2205.78 168.235 2205.67 168.018 2205.61 167.757C2205.55 167.511 2205.56 167.313 2205.59 167.191C2205.63 166.975 2205.71 166.944 2205.68 166.967L2213.79 180.759ZM2128.16 219.372C2131.96 228.97 2142.52 230.306 2149.44 225.496L2141.33 211.704C2141.29 211.727 2141.35 211.663 2141.55 211.712C2141.66 211.739 2141.83 211.809 2142.02 211.967C2142.21 212.135 2142.34 212.339 2142.41 212.508L2128.16 219.372Z" fill="#45413C" mask="url(#path-16-outside-4)"/>
<path fill-rule="evenodd" clip-rule="evenodd" d="M2209.33 174.145C2198.11 155.067 2174.79 149.491 2157.24 161.689C2139.7 173.887 2134.57 199.241 2145.79 218.318L2209.33 174.145Z" fill="#FFEDAF"/>
<path fill-rule="evenodd" clip-rule="evenodd" d="M2305.64 200.556L2306.74 161.143C2306.75 160.766 2306.87 160.4 2307.08 160.087L2356.23 86.9134C2356.81 86.0485 2356.62 84.8788 2355.8 84.2278L2339.84 71.5526C2338.93 70.8278 2337.59 71.0287 2336.94 71.9894L2283.68 150.649C2283.46 150.963 2283.35 151.331 2283.34 151.71L2281.85 205.075C2290.75 203.853 2298.81 202.214 2305.64 200.556Z" fill="#9F5AE5"/>
<path d="M2305.64 200.556L2306.82 205.415L2310.54 204.514L2310.64 200.695L2305.64 200.556ZM2306.74 161.143L2301.75 161.003L2301.75 161.003L2306.74 161.143ZM2307.08 160.087L2302.93 157.3L2302.93 157.3L2307.08 160.087ZM2356.23 86.9134L2352.08 84.1257L2352.08 84.1257L2356.23 86.9134ZM2355.8 84.2278L2352.69 88.1436L2352.69 88.1437L2355.8 84.2278ZM2339.84 71.5526L2336.73 75.4684L2336.73 75.4684L2339.84 71.5526ZM2336.94 71.9894L2341.08 74.7929L2341.08 74.7929L2336.94 71.9894ZM2283.68 150.649L2279.54 147.845L2279.54 147.845L2283.68 150.649ZM2283.34 151.71L2278.34 151.571L2278.34 151.571L2283.34 151.71ZM2281.85 205.075L2276.85 204.936L2276.69 210.83L2282.53 210.028L2281.85 205.075ZM2310.64 200.695L2311.74 161.282L2301.75 161.003L2300.65 200.417L2310.64 200.695ZM2311.74 161.282C2311.73 161.848 2311.55 162.401 2311.23 162.875L2302.93 157.3C2302.19 158.399 2301.78 159.683 2301.75 161.003L2311.74 161.282ZM2311.23 162.875L2360.38 89.7012L2352.08 84.1257L2302.93 157.3L2311.23 162.875ZM2360.38 89.7012C2362.42 86.6556 2361.76 82.5719 2358.91 80.312L2352.69 88.1437C2351.49 87.1857 2351.19 85.4415 2352.08 84.1257L2360.38 89.7012ZM2358.91 80.312L2342.95 67.6368L2336.73 75.4684L2352.69 88.1436L2358.91 80.312ZM2342.95 67.6368C2339.78 65.1176 2335.1 65.7944 2332.8 69.1858L2341.08 74.7929C2340.09 76.263 2338.08 76.5379 2336.73 75.4684L2342.95 67.6368ZM2332.8 69.1858L2279.54 147.845L2287.82 153.452L2341.08 74.7929L2332.8 69.1858ZM2279.54 147.845C2278.79 148.949 2278.37 150.242 2278.34 151.571L2288.33 151.85C2288.32 152.419 2288.14 152.976 2287.82 153.452L2279.54 147.845ZM2278.34 151.571L2276.85 204.936L2286.85 205.214L2288.33 151.85L2278.34 151.571ZM2282.53 210.028C2291.62 208.781 2299.85 207.107 2306.82 205.415L2304.47 195.697C2297.77 197.321 2289.88 198.926 2281.17 200.121L2282.53 210.028Z" fill="#45413C"/>
<path d="M3507 495.098V211H3587.43C3610.41 211 3630.93 216.659 3649.01 227.976C3667.2 239.163 3681.38 255.163 3691.55 275.976C3701.73 296.659 3706.81 320.203 3706.81 346.61V359.683C3706.81 386.089 3701.79 409.569 3691.73 430.122C3681.8 450.675 3667.74 466.61 3649.55 477.927C3631.35 489.244 3610.83 494.967 3587.97 495.098H3507ZM3560.86 258.415V448.073H3586.89C3607.95 448.073 3624.05 440.593 3635.18 425.634C3646.31 410.675 3652 389.276 3652.24 361.439V346.415C3652.24 317.537 3646.73 295.683 3635.72 280.854C3624.71 265.894 3608.61 258.415 3587.43 258.415H3560.86Z" fill="#5D5FEF"/>
<path d="M3734.64 387.585C3734.64 366.642 3738.35 347.976 3745.77 331.585C3753.19 315.195 3763.84 302.512 3777.73 293.537C3791.73 284.561 3807.95 280.073 3826.38 280.073C3852.59 280.073 3873.96 288.789 3890.47 306.22C3907.11 323.65 3916.38 347.325 3918.3 377.244L3918.66 391.683C3918.66 424.073 3910.34 450.089 3893.7 469.732C3877.07 489.244 3854.75 499 3826.74 499C3798.73 499 3776.35 489.244 3759.6 469.732C3742.96 450.22 3734.64 423.683 3734.64 390.122V387.585ZM3786.52 391.683C3786.52 411.715 3790 427.065 3796.94 437.732C3803.88 448.268 3813.81 453.537 3826.74 453.537C3839.31 453.537 3849.12 448.333 3856.18 437.927C3863.24 427.39 3866.77 410.61 3866.77 387.585C3866.77 367.943 3863.24 352.724 3856.18 341.927C3849.12 331.13 3839.19 325.732 3826.38 325.732C3813.69 325.732 3803.88 331.13 3796.94 341.927C3790 352.593 3786.52 369.179 3786.52 391.683Z" fill="#5D5FEF"/>
<path d="M4031.4 453.537C4040.98 453.537 4048.76 450.675 4054.74 444.951C4060.72 439.228 4063.84 431.618 4064.08 422.122H4112.73C4112.61 436.431 4109.02 449.569 4101.96 461.537C4094.89 473.374 4085.2 482.61 4072.87 489.244C4060.66 495.748 4047.14 499 4032.3 499C4004.53 499 3982.63 489.439 3966.59 470.317C3950.55 451.065 3942.53 424.528 3942.53 390.707V387C3942.53 354.48 3950.49 328.528 3966.41 309.146C3982.33 289.764 4004.17 280.073 4031.94 280.073C4056.24 280.073 4075.68 287.618 4090.29 302.707C4105.01 317.667 4112.49 337.634 4112.73 362.61H4064.08C4063.84 351.683 4060.72 342.837 4054.74 336.073C4048.76 329.179 4040.86 325.732 4031.04 325.732C4018.95 325.732 4009.8 330.545 4003.57 340.171C3997.47 349.667 3994.42 365.146 3994.42 386.61V392.463C3994.42 414.187 3997.47 429.797 4003.57 439.293C4009.68 448.789 4018.95 453.537 4031.4 453.537Z" fill="#5D5FEF"/>
<path d="M4247.55 436.756C4247.55 429.862 4244.38 424.463 4238.04 420.561C4231.81 416.528 4221.76 412.951 4207.88 409.829C4161.68 399.293 4138.58 377.959 4138.58 345.829C4138.58 327.098 4145.7 311.488 4159.94 299C4174.31 286.382 4193.04 280.073 4216.14 280.073C4240.79 280.073 4260.48 286.382 4275.2 299C4290.04 311.618 4297.46 328.008 4297.46 348.171H4245.58C4245.58 340.106 4243.18 333.472 4238.4 328.268C4233.61 322.935 4226.13 320.268 4215.96 320.268C4207.22 320.268 4200.46 322.415 4195.67 326.707C4190.88 331 4188.49 336.463 4188.49 343.098C4188.49 349.341 4191.18 354.415 4196.57 358.317C4202.07 362.089 4211.29 365.407 4224.21 368.268C4237.14 371 4248.03 374.122 4256.89 377.634C4284.3 388.561 4298 407.488 4298 434.415C4298 453.667 4290.4 469.276 4275.2 481.244C4260 493.081 4240.37 499 4216.31 499C4200.04 499 4185.56 495.878 4172.87 489.634C4160.3 483.26 4150.43 474.61 4143.25 463.683C4136.07 452.626 4132.48 440.724 4132.48 427.976H4181.67C4182.14 437.992 4185.56 445.667 4191.9 451C4198.24 456.333 4206.74 459 4217.39 459C4227.33 459 4234.81 456.984 4239.83 452.951C4244.98 448.789 4247.55 443.39 4247.55 436.756Z" fill="#5D5FEF"/>
<path d="M131.445 395.977H21.4844V350.469H131.445V395.977ZM286.523 395.977H176.562V350.469H286.523V395.977ZM441.602 395.977H331.641V350.469H441.602V395.977ZM596.68 395.977H486.719V350.469H596.68V395.977ZM751.758 395.977H641.797V350.469H751.758V395.977ZM906.836 395.977H796.875V350.469H906.836V395.977ZM1061.91 395.977H951.953V350.469H1061.91V395.977ZM1216.99 395.977H1107.03V350.469H1216.99V395.977ZM1372.07 395.977H1262.11V350.469H1372.07V395.977ZM1527.15 395.977H1417.19V350.469H1527.15V395.977ZM1682.23 395.977H1572.27V350.469H1682.23V395.977ZM1837.3 395.977H1727.34V350.469H1837.3V395.977ZM1992.38 395.977H1882.42V350.469H1992.38V395.977Z" fill="#B8B8B8"/>
<path d="M4597.43 395.977H4487.47V350.469H4597.43V395.977ZM4752.51 395.977H4642.55V350.469H4752.51V395.977ZM4907.59 395.977H4797.62V350.469H4907.59V395.977ZM5062.66 395.977H4952.7V350.469H5062.66V395.977ZM5217.74 395.977H5107.78V350.469H5217.74V395.977ZM5372.82 395.977H5262.86V350.469H5372.82V395.977ZM5527.9 395.977H5417.94V350.469H5527.9V395.977ZM5682.98 395.977H5573.02V350.469H5682.98V395.977ZM5838.05 395.977H5728.09V350.469H5838.05V395.977ZM5993.13 395.977H5883.17V350.469H5993.13V395.977ZM6148.21 395.977H6038.25V350.469H6148.21V395.977ZM6303.29 395.977H6193.33V350.469H6303.29V395.977ZM6458.37 395.977H6348.41V350.469H6458.37V395.977Z" fill="#B8B8B8"/>
</svg>
