<svg width="2632" height="717" viewBox="0 0 2632 717" fill="none" xmlns="http://www.w3.org/2000/svg">
<path d="M705.293 420.391C705.293 409.323 701.701 400.859 694.515 395C687.33 389.01 674.396 382.76 655.714 376.25C637.032 369.609 622.242 363.099 611.345 356.719C581.645 339.271 566.795 315.768 566.795 286.211C566.795 270.846 570.747 257.174 578.651 245.195C586.675 233.086 598.112 223.646 612.961 216.875C627.931 210.104 644.697 206.719 663.259 206.719C681.941 206.719 698.587 210.43 713.197 217.852C727.807 225.143 739.124 235.495 747.148 248.906C755.291 262.318 759.363 277.552 759.363 294.609H705.473C705.473 281.589 701.701 271.497 694.156 264.336C686.611 257.044 676.013 253.398 662.361 253.398C649.188 253.398 638.948 256.458 631.643 262.578C624.338 268.568 620.686 276.51 620.686 286.406C620.686 295.651 624.937 303.398 633.44 309.648C642.062 315.898 654.696 321.758 671.342 327.227C702 337.253 724.334 349.688 738.346 364.531C752.357 379.375 759.363 397.865 759.363 420C759.363 444.609 750.8 463.945 733.675 478.008C716.55 491.94 693.497 498.906 664.516 498.906C644.397 498.906 626.075 494.935 609.548 486.992C593.022 478.919 580.388 467.917 571.646 453.984C563.023 440.052 558.712 423.906 558.712 405.547H612.782C612.782 436.927 630.027 452.617 664.516 452.617C677.33 452.617 687.33 449.818 694.515 444.219C701.701 438.49 705.293 430.547 705.293 420.391Z" fill="black"/>
<path d="M843.252 306.719C857.024 288.75 874.329 279.766 895.166 279.766C937.32 279.766 958.697 306.393 959.296 359.648V495H907.381V361.211C907.381 349.102 904.986 340.182 900.196 334.453C895.406 328.594 887.442 325.664 876.305 325.664C861.096 325.664 850.078 332.044 843.252 344.805V495H791.338V195H843.252V306.719Z" fill="black"/>
<path d="M1111.09 495C1108.69 489.922 1106.95 483.607 1105.88 476.055C1093.3 491.289 1076.96 498.906 1056.84 498.906C1037.8 498.906 1021.99 492.917 1009.41 480.938C996.959 468.958 990.732 453.854 990.732 435.625C990.732 413.229 998.336 396.042 1013.55 384.062C1028.87 372.083 1050.97 366.029 1079.83 365.898H1103.72V353.789C1103.72 344.023 1101.39 336.211 1096.72 330.352C1092.16 324.492 1084.92 321.562 1074.98 321.562C1066.24 321.562 1059.35 323.841 1054.32 328.398C1049.41 332.956 1046.96 339.206 1046.96 347.148H995.043C995.043 334.909 998.516 323.581 1005.46 313.164C1012.41 302.747 1022.23 294.609 1034.92 288.75C1047.62 282.76 1061.87 279.766 1077.67 279.766C1101.63 279.766 1120.61 286.341 1134.62 299.492C1148.75 312.513 1155.82 330.872 1155.82 354.57V446.172C1155.93 466.224 1158.51 481.393 1163.54 491.68V495H1111.09ZM1068.15 455.742C1075.82 455.742 1082.88 453.919 1089.35 450.273C1095.82 446.497 1100.61 441.484 1103.72 435.234V398.906H1084.32C1058.33 398.906 1044.5 408.672 1042.83 428.203L1042.65 431.523C1042.65 438.555 1044.92 444.349 1049.47 448.906C1054.02 453.464 1060.25 455.742 1068.15 455.742Z" fill="black"/>
<path d="M1266.29 410.234L1247.61 430.547V495H1195.69V195H1247.61V361.211L1257.67 347.148L1307.43 283.672H1369.76L1299.52 371.758L1375.87 495H1316.23L1266.29 410.234Z" fill="black"/>
<path d="M1478.08 498.906C1449.58 498.906 1426.34 489.401 1408.38 470.391C1390.54 451.38 1381.62 426.055 1381.62 394.414V388.945C1381.62 367.721 1385.39 348.776 1392.93 332.109C1400.48 315.312 1411.13 302.422 1424.91 293.438C1438.8 284.323 1454.61 279.766 1472.33 279.766C1498.92 279.766 1519.81 288.88 1535.02 307.109C1550.35 325.339 1558.02 351.185 1558.02 384.648V407.695H1434.25C1435.92 421.497 1440.95 432.565 1449.34 440.898C1457.84 449.232 1468.56 453.398 1481.49 453.398C1501.49 453.398 1517.12 445.521 1528.38 429.766L1553.88 460.82C1546.1 472.799 1535.56 482.174 1522.27 488.945C1508.98 495.586 1494.25 498.906 1478.08 498.906ZM1472.15 325.469C1461.85 325.469 1453.47 329.245 1447 336.797C1440.65 344.349 1436.58 355.156 1434.79 369.219H1507V364.727C1506.76 352.227 1503.65 342.591 1497.66 335.82C1491.67 328.919 1483.17 325.469 1472.15 325.469Z" fill="black"/>
<ellipse cx="330.182" cy="560" rx="124.163" ry="32" fill="black" fill-opacity="0.15"/>
<mask id="path-3-outside-1" maskUnits="userSpaceOnUse" x="234.625" y="428.585" width="188" height="152" fill="black">
<rect fill="white" x="234.625" y="428.585" width="188" height="152"/>
<path fill-rule="evenodd" clip-rule="evenodd" d="M335.678 445.943C335.678 441.879 332.384 438.585 328.321 438.585V438.585C324.257 438.585 320.963 441.879 320.963 445.943V517.098C320.963 526.871 313.146 534.788 303.408 535.621C269.351 538.535 244.625 547.266 244.625 557.585C244.625 558.127 244.969 558.59 245.463 558.815C260.804 565.799 292.148 570.585 328.321 570.585C364.493 570.585 395.837 565.799 411.179 558.815C411.672 558.59 412.016 558.127 412.016 557.585C412.016 547.266 387.29 538.535 353.233 535.621C343.495 534.788 335.678 526.871 335.678 517.098V445.943Z"/>
</mask>
<path fill-rule="evenodd" clip-rule="evenodd" d="M335.678 445.943C335.678 441.879 332.384 438.585 328.321 438.585V438.585C324.257 438.585 320.963 441.879 320.963 445.943V517.098C320.963 526.871 313.146 534.788 303.408 535.621C269.351 538.535 244.625 547.266 244.625 557.585C244.625 558.127 244.969 558.59 245.463 558.815C260.804 565.799 292.148 570.585 328.321 570.585C364.493 570.585 395.837 565.799 411.179 558.815C411.672 558.59 412.016 558.127 412.016 557.585C412.016 547.266 387.29 538.535 353.233 535.621C343.495 534.788 335.678 526.871 335.678 517.098V445.943Z" fill="#00B8F0"/>
<path d="M245.463 558.815L249.606 549.713L249.606 549.713L245.463 558.815ZM411.179 558.815L407.035 549.713L407.035 549.713L411.179 558.815ZM303.408 535.621L302.555 525.657L303.408 535.621ZM330.963 517.098V445.943H310.963V517.098H330.963ZM254.625 557.585C254.625 559.315 253.574 559.394 255.326 557.972C256.976 556.631 259.99 554.942 264.695 553.212C274.004 549.791 287.742 546.998 304.26 545.584L302.555 525.657C285.017 527.158 269.364 530.188 257.795 534.44C252.062 536.548 246.766 539.158 242.716 542.448C238.767 545.655 234.625 550.695 234.625 557.585H254.625ZM249.606 549.713C252.126 550.861 254.625 553.634 254.625 557.585H234.625C234.625 562.62 237.811 566.319 241.319 567.916L249.606 549.713ZM328.321 560.585C292.475 560.585 262.921 555.776 249.606 549.713L241.319 567.916C258.687 575.823 291.82 580.585 328.321 580.585V560.585ZM407.035 549.713C393.72 555.776 364.166 560.585 328.321 560.585V580.585C364.821 580.585 397.954 575.823 415.322 567.916L407.035 549.713ZM402.016 557.585C402.016 553.634 404.515 550.861 407.035 549.713L415.322 567.916C418.83 566.319 422.016 562.62 422.016 557.585H402.016ZM352.381 545.584C368.899 546.998 382.637 549.791 391.946 553.212C396.651 554.942 399.665 556.631 401.315 557.972C403.067 559.394 402.016 559.315 402.016 557.585H422.016C422.016 550.695 417.874 545.655 413.925 542.448C409.875 539.158 404.579 536.548 398.846 534.44C387.278 530.188 371.624 527.158 354.086 525.657L352.381 545.584ZM325.678 445.943V517.098H345.678V445.943H325.678ZM354.086 525.657C349.118 525.232 345.678 521.284 345.678 517.098H325.678C325.678 532.459 337.872 544.343 352.381 545.584L354.086 525.657ZM310.963 517.098C310.963 521.284 307.523 525.232 302.555 525.657L304.26 545.584C318.769 544.343 330.963 532.459 330.963 517.098H310.963ZM328.321 448.585C326.861 448.585 325.678 447.402 325.678 445.943H345.678C345.678 436.356 337.907 428.585 328.321 428.585V448.585ZM328.321 428.585C318.734 428.585 310.963 436.356 310.963 445.943H330.963C330.963 447.402 329.78 448.585 328.321 448.585V428.585Z" fill="#45413C" mask="url(#path-3-outside-1)"/>
<mask id="path-5-outside-2" maskUnits="userSpaceOnUse" x="230.027" y="178.997" width="197" height="304" fill="black">
<rect fill="white" x="230.027" y="178.997" width="197" height="304"/>
<path fill-rule="evenodd" clip-rule="evenodd" d="M402.481 190.06C403.116 189.826 403.787 190.273 403.834 190.948L416.612 372.547C416.613 372.567 416.597 372.585 416.576 372.585V372.585C416.556 372.585 416.54 372.601 416.54 372.622C416.589 373.936 416.614 375.257 416.614 376.585C416.614 429.604 377.084 472.585 328.321 472.585C279.557 472.585 240.027 429.604 240.027 376.585C240.027 375.257 240.052 373.936 240.101 372.622C240.101 372.601 240.085 372.585 240.065 372.585V372.585C240.044 372.585 240.028 372.567 240.03 372.547L252.807 190.948C252.855 190.273 253.525 189.826 254.16 190.06C260.662 192.454 291.594 203.085 328.321 203.085C365.047 203.085 395.979 192.454 402.481 190.06Z"/>
</mask>
<path fill-rule="evenodd" clip-rule="evenodd" d="M402.481 190.06C403.116 189.826 403.787 190.273 403.834 190.948L416.612 372.547C416.613 372.567 416.597 372.585 416.576 372.585V372.585C416.556 372.585 416.54 372.601 416.54 372.622C416.589 373.936 416.614 375.257 416.614 376.585C416.614 429.604 377.084 472.585 328.321 472.585C279.557 472.585 240.027 429.604 240.027 376.585C240.027 375.257 240.052 373.936 240.101 372.622C240.101 372.601 240.085 372.585 240.065 372.585V372.585C240.044 372.585 240.028 372.567 240.03 372.547L252.807 190.948C252.855 190.273 253.525 189.826 254.16 190.06C260.662 192.454 291.594 203.085 328.321 203.085C365.047 203.085 395.979 192.454 402.481 190.06Z" fill="#00B8F0"/>
<path d="M328.321 203.085L328.321 193.085L328.321 193.085L328.321 203.085ZM240.03 372.547L250.005 373.248L240.03 372.547ZM416.54 372.622L426.533 372.248L416.54 372.622ZM403.834 190.948L393.859 191.65L403.834 190.948ZM402.481 190.06L399.025 180.676L402.481 190.06ZM416.612 372.547L406.636 373.248L416.612 372.547ZM426.587 371.845L413.809 190.246L393.859 191.65L406.636 373.248L426.587 371.845ZM426.614 376.585C426.614 375.133 426.587 373.687 426.533 372.248L406.547 372.995C406.592 374.185 406.614 375.382 406.614 376.585H426.614ZM328.321 482.585C383.378 482.585 426.614 434.323 426.614 376.585H406.614C406.614 424.885 370.79 462.585 328.321 462.585V482.585ZM328.321 462.585C285.851 462.585 250.027 424.885 250.027 376.585H230.027C230.027 434.323 273.263 482.585 328.321 482.585V462.585ZM250.027 376.585C250.027 375.382 250.049 374.185 250.094 372.995L230.108 372.248C230.054 373.687 230.027 375.133 230.027 376.585H250.027ZM250.005 373.248L262.782 191.65L242.832 190.246L230.054 371.845L250.005 373.248ZM250.704 199.444C257.669 202.009 289.883 213.085 328.321 213.085L328.321 193.085C293.305 193.085 263.654 182.9 257.616 180.676L250.704 199.444ZM399.025 180.676C392.987 182.9 363.336 193.085 328.321 193.085V213.085C366.758 213.085 398.972 202.009 405.937 199.444L399.025 180.676ZM262.782 191.65C262.377 197.409 256.518 201.585 250.704 199.444L257.616 180.676C250.532 178.067 243.332 183.137 242.832 190.246L262.782 191.65ZM240.065 362.585C245.844 362.585 250.41 367.484 250.005 373.248L230.054 371.845C229.646 377.65 234.245 382.585 240.065 382.585V362.585ZM416.576 362.585C410.886 362.585 406.335 367.31 406.547 372.995L426.533 372.248C426.744 377.893 422.226 382.585 416.576 382.585V362.585ZM250.094 372.995C250.306 367.31 245.755 362.585 240.065 362.585V382.585C234.415 382.585 229.897 377.893 230.108 372.248L250.094 372.995ZM413.809 190.246C413.309 183.137 406.109 178.067 399.025 180.676L405.937 199.444C400.123 201.585 394.264 197.409 393.859 191.65L413.809 190.246ZM406.636 373.248C406.231 367.484 410.797 362.585 416.576 362.585V382.585C422.396 382.585 426.995 377.65 426.587 371.845L406.636 373.248Z" fill="#45413C" mask="url(#path-5-outside-2)"/>
<ellipse cx="328.321" cy="260.585" rx="68.0597" ry="14" fill="#BC5E00"/>
<path fill-rule="evenodd" clip-rule="evenodd" d="M356.96 201.059C365.864 199.833 373.929 198.189 380.757 196.529L377.731 305.105C377.7 306.209 376.78 307.075 375.676 307.038L356.025 306.391C354.921 306.354 354.051 305.43 354.082 304.326L356.96 201.059Z" fill="#9F5AE5"/>
<path d="M356.96 201.059L356.278 196.106L352.08 196.684L351.962 200.92L356.96 201.059ZM380.757 196.529L385.755 196.668L385.937 190.124L379.576 191.67L380.757 196.529ZM377.731 305.105L382.729 305.244L382.729 305.244L377.731 305.105ZM375.676 307.038L375.511 312.035L375.511 312.035L375.676 307.038ZM356.025 306.391L356.19 301.393L356.19 301.393L356.025 306.391ZM354.082 304.326L349.084 304.186L354.082 304.326ZM357.642 206.013C366.738 204.76 374.971 203.081 381.938 201.387L379.576 191.67C372.887 193.296 364.99 194.906 356.278 196.106L357.642 206.013ZM382.729 305.244L385.755 196.668L375.759 196.39L372.733 304.966L382.729 305.244ZM375.511 312.035C379.385 312.163 382.621 309.118 382.729 305.244L372.733 304.966C372.779 303.299 374.175 301.986 375.841 302.041L375.511 312.035ZM355.86 311.388L375.511 312.035L375.841 302.041L356.19 301.393L355.86 311.388ZM349.084 304.186C348.976 308.041 352.006 311.261 355.86 311.388L356.19 301.393C357.836 301.448 359.126 302.819 359.08 304.465L349.084 304.186ZM351.962 200.92L349.084 304.186L359.08 304.465L361.958 201.199L351.962 200.92Z" fill="#45413C"/>
<path fill-rule="evenodd" clip-rule="evenodd" d="M263.079 260.585H260.257L253.825 363.016C253.824 363.034 253.838 363.049 253.855 363.049C253.872 363.049 253.886 363.063 253.885 363.08C253.844 364.324 253.823 365.574 253.823 366.83C253.823 416.952 287.177 457.585 328.321 457.585C369.465 457.585 402.818 416.952 402.818 366.83C402.818 365.574 402.797 364.324 402.756 363.08C402.755 363.063 402.769 363.049 402.786 363.049C402.804 363.049 402.817 363.034 402.816 363.016L396.384 260.585H393.562C385.195 266.368 359.152 270.585 328.321 270.585C297.489 270.585 271.446 266.368 263.079 260.585Z" fill="#FF8A14"/>
<path fill-rule="evenodd" clip-rule="evenodd" d="M263.079 260.585H260.257L253.825 363.016C253.824 363.034 253.838 363.049 253.855 363.049C253.872 363.049 253.886 363.063 253.885 363.08C253.844 364.324 253.823 365.574 253.823 366.83C253.823 416.952 287.177 457.585 328.321 457.585C369.465 457.585 402.818 416.952 402.818 366.83C402.818 365.574 402.797 364.324 402.756 363.08C402.755 363.063 402.769 363.049 402.786 363.049C402.804 363.049 402.817 363.034 402.816 363.016L396.384 260.585H393.562C385.195 266.368 359.152 270.585 328.321 270.585C297.489 270.585 271.446 266.368 263.079 260.585Z" fill="#FF8A14"/>
<path fill-rule="evenodd" clip-rule="evenodd" d="M254.292 377.073C258.469 422.373 290.019 457.585 328.321 457.585C366.749 457.585 398.381 422.139 402.39 376.622C378.257 382.489 353.161 385.585 327.401 385.585C302.309 385.585 277.847 382.648 254.292 377.073Z" fill="#FF6242"/>
<path fill-rule="evenodd" clip-rule="evenodd" d="M249.268 419.39C243.354 406.503 240.027 391.966 240.027 376.585C240.027 375.257 240.052 373.936 240.101 372.622C240.101 372.601 240.085 372.585 240.065 372.585C240.044 372.585 240.028 372.567 240.03 372.547L252.807 190.948C252.855 190.273 253.525 189.826 254.16 190.06C260.662 192.454 291.594 203.085 328.321 203.085C365.047 203.085 395.979 192.454 402.481 190.06C403.116 189.826 403.787 190.273 403.834 190.948L409.324 268.967C384.653 345.555 323.923 403.719 249.268 419.39Z" fill="white" fill-opacity="0.29"/>
<mask id="path-14-outside-3" maskUnits="userSpaceOnUse" x="247.031" y="166.087" width="165" height="47" fill="black">
<rect fill="white" x="247.031" y="166.087" width="165" height="47"/>
<path fill-rule="evenodd" clip-rule="evenodd" d="M257.815 191.343C256.77 190.991 256.77 188.178 257.815 187.826C268.556 184.208 295.715 176.254 327.317 176.087C327.869 176.085 328.321 176.532 328.321 177.085V189.585L328.321 177.085C328.321 176.532 328.773 176.085 329.325 176.087C363.851 176.269 393.075 185.747 401.378 188.71C402.23 189.014 402.23 190.156 401.378 190.46C392.995 193.451 363.283 203.085 328.321 203.085C296.292 203.085 268.669 195 257.815 191.343Z"/>
</mask>
<path fill-rule="evenodd" clip-rule="evenodd" d="M257.815 191.343C256.77 190.991 256.77 188.178 257.815 187.826C268.556 184.208 295.715 176.254 327.317 176.087C327.869 176.085 328.321 176.532 328.321 177.085V189.585L328.321 177.085C328.321 176.532 328.773 176.085 329.325 176.087C363.851 176.269 393.075 185.747 401.378 188.71C402.23 189.014 402.23 190.156 401.378 190.46C392.995 193.451 363.283 203.085 328.321 203.085C296.292 203.085 268.669 195 257.815 191.343Z" fill="#00B8F0"/>
<path d="M401.378 188.71L398.017 198.128L401.378 188.71ZM401.378 190.46L404.738 199.878L401.378 190.46ZM328.321 177.085L318.321 177.085L328.321 177.085ZM329.325 176.087L329.273 186.087L329.325 176.087ZM257.815 191.343L254.623 200.82L257.815 191.343ZM327.264 166.088C294.164 166.262 265.865 174.562 254.623 178.349L261.007 197.303C271.247 193.854 297.267 186.246 327.369 186.087L327.264 166.088ZM338.321 189.585V177.085H318.321V189.585H338.321ZM318.321 177.085L318.321 189.585L338.321 189.585L338.321 177.085L318.321 177.085ZM404.738 179.291C395.956 176.158 365.517 166.278 329.378 166.088L329.273 186.087C362.185 186.26 390.194 195.337 398.017 198.128L404.738 179.291ZM328.321 213.085C364.927 213.085 395.876 203.041 404.738 199.878L398.017 181.042C390.114 183.862 361.639 193.085 328.321 193.085V213.085ZM254.623 200.82C265.98 204.646 294.764 213.085 328.321 213.085V193.085C297.82 193.085 271.359 185.354 261.007 181.867L254.623 200.82ZM398.017 198.128C390.017 195.274 390.017 183.896 398.017 181.042L404.738 199.878C414.444 196.415 414.443 182.754 404.738 179.291L398.017 198.128ZM338.321 177.085C338.321 182.098 334.242 186.113 329.273 186.087L329.378 166.088C323.304 166.056 318.321 170.967 318.321 177.085L338.321 177.085ZM254.623 178.349C250.425 179.764 248.618 183.111 247.974 184.683C247.24 186.474 247.031 188.214 247.031 189.585C247.031 190.955 247.24 192.696 247.974 194.487C248.618 196.059 250.425 199.406 254.623 200.82L261.007 181.867C264.683 183.105 266.097 185.968 266.48 186.903C266.953 188.056 267.031 189.006 267.031 189.585C267.031 190.164 266.953 191.113 266.48 192.267C266.097 193.201 264.683 196.065 261.007 197.303L254.623 178.349ZM327.369 186.087C322.4 186.113 318.321 182.098 318.321 177.085H338.321C338.321 170.967 333.338 166.056 327.264 166.088L327.369 186.087Z" fill="#45413C" mask="url(#path-14-outside-3)"/>
<mask id="path-16-outside-4" maskUnits="userSpaceOnUse" x="178.039" y="115.613" width="124.089" height="119.391" fill="black">
<rect fill="white" x="178.039" y="115.613" width="124.089" height="119.391"/>
<path fill-rule="evenodd" clip-rule="evenodd" d="M227.784 154.107C208.538 167.486 201.543 193.845 210.286 215.94C211.931 220.096 216.754 221.122 220.382 218.6L284.731 173.863C288.359 171.341 289.527 166.15 286.747 162.783C271.97 144.883 247.03 140.727 227.784 154.107Z"/>
</mask>
<path fill-rule="evenodd" clip-rule="evenodd" d="M227.784 154.107C208.538 167.486 201.543 193.845 210.286 215.94C211.931 220.096 216.754 221.122 220.382 218.6L284.731 173.863C288.359 171.341 289.527 166.15 286.747 162.783C271.97 144.883 247.03 140.727 227.784 154.107Z" fill="#D6B027"/>
<path d="M286.747 162.783L280.894 168.372L286.747 162.783ZM217.408 212.508C210.029 193.86 216.043 171.985 231.839 161.002L223.728 147.211C201.034 162.988 193.057 193.831 203.164 219.372L217.408 212.508ZM280.676 166.967L216.327 211.704L224.437 225.496L288.787 180.759L280.676 166.967ZM231.839 161.002C247.636 150.02 268.422 153.264 280.894 168.372L292.601 157.194C275.519 136.502 246.423 131.433 223.728 147.211L231.839 161.002ZM288.787 180.759C295.706 175.949 299.02 164.97 292.601 157.194L280.894 168.372C280.781 168.235 280.666 168.018 280.607 167.757C280.552 167.511 280.565 167.313 280.589 167.191C280.631 166.975 280.709 166.944 280.676 166.967L288.787 180.759ZM203.164 219.372C206.962 228.97 217.519 230.306 224.437 225.496L216.327 211.704C216.294 211.727 216.353 211.663 216.55 211.712C216.662 211.739 216.833 211.809 217.015 211.967C217.209 212.135 217.341 212.339 217.408 212.508L203.164 219.372Z" fill="#45413C" mask="url(#path-16-outside-4)"/>
<path fill-rule="evenodd" clip-rule="evenodd" d="M284.326 174.144C273.107 155.067 249.789 149.491 232.243 161.689C214.697 173.887 209.568 199.241 220.787 218.318L284.326 174.144Z" fill="#FFEDAF"/>
<path fill-rule="evenodd" clip-rule="evenodd" d="M380.645 200.556L381.743 161.143C381.754 160.766 381.871 160.4 382.08 160.087L431.226 86.9134C431.807 86.0485 431.623 84.8788 430.803 84.2278L414.839 71.5526C413.926 70.8278 412.594 71.0287 411.943 71.9894L358.677 150.649C358.464 150.963 358.346 151.331 358.335 151.71L356.848 205.075C365.748 203.853 373.812 202.214 380.645 200.556Z" fill="#9F5AE5"/>
<path d="M380.645 200.556L381.823 205.415L385.536 204.514L385.643 200.695L380.645 200.556ZM381.743 161.143L386.741 161.282L386.741 161.282L381.743 161.143ZM382.08 160.087L386.231 162.875L386.231 162.875L382.08 160.087ZM431.226 86.9134L435.377 89.7012L435.377 89.7012L431.226 86.9134ZM430.803 84.2278L433.912 80.312L433.912 80.312L430.803 84.2278ZM414.839 71.5526L417.948 67.6368L417.948 67.6368L414.839 71.5526ZM411.943 71.9894L416.083 74.7929L416.083 74.7929L411.943 71.9894ZM358.677 150.649L354.537 147.845L354.537 147.845L358.677 150.649ZM358.335 151.71L353.337 151.571L353.337 151.571L358.335 151.71ZM356.848 205.075L351.85 204.936L351.686 210.83L357.528 210.028L356.848 205.075ZM385.643 200.695L386.741 161.282L376.745 161.003L375.647 200.417L385.643 200.695ZM386.741 161.282C386.725 161.848 386.55 162.401 386.231 162.875L377.93 157.3C377.191 158.399 376.782 159.683 376.745 161.003L386.741 161.282ZM386.231 162.875L435.377 89.7012L427.076 84.1257L377.93 157.3L386.231 162.875ZM435.377 89.7012C437.423 86.6556 436.758 82.5719 433.912 80.312L427.694 88.1436C426.487 87.1857 426.192 85.4415 427.076 84.1257L435.377 89.7012ZM433.912 80.312L417.948 67.6368L411.73 75.4684L427.694 88.1436L433.912 80.312ZM417.948 67.6368C414.775 65.1176 410.1 65.7944 407.803 69.1858L416.083 74.7929C415.088 76.263 413.077 76.5379 411.73 75.4684L417.948 67.6368ZM407.803 69.1858L354.537 147.845L362.817 153.452L416.083 74.7929L407.803 69.1858ZM354.537 147.845C353.789 148.949 353.374 150.242 353.337 151.571L363.333 151.85C363.318 152.419 363.14 152.976 362.817 153.452L354.537 147.845ZM353.337 151.571L351.85 204.936L361.846 205.214L363.333 151.85L353.337 151.571ZM357.528 210.028C366.62 208.781 374.851 207.107 381.823 205.415L379.466 195.697C372.773 197.321 364.877 198.926 356.168 200.121L357.528 210.028Z" fill="#45413C"/>
<path d="M1582 495.098V211H1662.43C1685.41 211 1705.93 216.659 1724.01 227.976C1742.2 239.163 1756.38 255.163 1766.55 275.976C1776.73 296.659 1781.81 320.203 1781.81 346.61V359.683C1781.81 386.089 1776.79 409.569 1766.73 430.122C1756.8 450.675 1742.74 466.61 1724.55 477.927C1706.35 489.244 1685.83 494.967 1662.97 495.098H1582ZM1635.86 258.415V448.073H1661.89C1682.95 448.073 1699.05 440.593 1710.18 425.634C1721.31 410.675 1727 389.276 1727.24 361.439V346.415C1727.24 317.537 1721.73 295.683 1710.72 280.854C1699.71 265.894 1683.61 258.415 1662.43 258.415H1635.86Z" fill="#5D5FEF"/>
<path d="M1809.64 387.585C1809.64 366.642 1813.35 347.976 1820.77 331.585C1828.19 315.195 1838.84 302.512 1852.73 293.537C1866.73 284.561 1882.95 280.073 1901.38 280.073C1927.59 280.073 1948.96 288.789 1965.47 306.22C1982.11 323.65 1991.38 347.325 1993.3 377.244L1993.66 391.683C1993.66 424.073 1985.34 450.089 1968.7 469.732C1952.07 489.244 1929.75 499 1901.74 499C1873.73 499 1851.35 489.244 1834.6 469.732C1817.96 450.22 1809.64 423.683 1809.64 390.122V387.585ZM1861.52 391.683C1861.52 411.715 1865 427.065 1871.94 437.732C1878.88 448.268 1888.81 453.537 1901.74 453.537C1914.31 453.537 1924.12 448.333 1931.18 437.927C1938.24 427.39 1941.77 410.61 1941.77 387.585C1941.77 367.943 1938.24 352.724 1931.18 341.927C1924.12 331.13 1914.19 325.732 1901.38 325.732C1888.69 325.732 1878.88 331.13 1871.94 341.927C1865 352.593 1861.52 369.179 1861.52 391.683Z" fill="#5D5FEF"/>
<path d="M2106.4 453.537C2115.98 453.537 2123.76 450.675 2129.74 444.951C2135.72 439.228 2138.84 431.618 2139.08 422.122H2187.73C2187.61 436.431 2184.02 449.569 2176.96 461.537C2169.89 473.374 2160.2 482.61 2147.87 489.244C2135.66 495.748 2122.14 499 2107.3 499C2079.53 499 2057.63 489.439 2041.59 470.317C2025.55 451.065 2017.53 424.528 2017.53 390.707V387C2017.53 354.48 2025.49 328.528 2041.41 309.146C2057.33 289.764 2079.17 280.073 2106.94 280.073C2131.24 280.073 2150.68 287.618 2165.29 302.707C2180.01 317.667 2187.49 337.634 2187.73 362.61H2139.08C2138.84 351.683 2135.72 342.837 2129.74 336.073C2123.76 329.179 2115.86 325.732 2106.04 325.732C2093.95 325.732 2084.8 330.545 2078.57 340.171C2072.47 349.667 2069.42 365.146 2069.42 386.61V392.463C2069.42 414.187 2072.47 429.797 2078.57 439.293C2084.68 448.789 2093.95 453.537 2106.4 453.537Z" fill="#5D5FEF"/>
<path d="M2322.55 436.756C2322.55 429.862 2319.38 424.463 2313.04 420.561C2306.81 416.528 2296.76 412.951 2282.88 409.829C2236.68 399.293 2213.58 377.959 2213.58 345.829C2213.58 327.098 2220.7 311.488 2234.94 299C2249.31 286.382 2268.04 280.073 2291.14 280.073C2315.79 280.073 2335.48 286.382 2350.2 299C2365.04 311.618 2372.46 328.008 2372.46 348.171H2320.58C2320.58 340.106 2318.18 333.472 2313.4 328.268C2308.61 322.935 2301.13 320.268 2290.96 320.268C2282.22 320.268 2275.46 322.415 2270.67 326.707C2265.88 331 2263.49 336.463 2263.49 343.098C2263.49 349.341 2266.18 354.415 2271.57 358.317C2277.07 362.089 2286.29 365.407 2299.21 368.268C2312.14 371 2323.03 374.122 2331.89 377.634C2359.3 388.561 2373 407.488 2373 434.415C2373 453.667 2365.4 469.276 2350.2 481.244C2335 493.081 2315.37 499 2291.31 499C2275.04 499 2260.56 495.878 2247.87 489.634C2235.3 483.26 2225.43 474.61 2218.25 463.683C2211.07 452.626 2207.48 440.724 2207.48 427.976H2256.67C2257.14 437.992 2260.56 445.667 2266.9 451C2273.24 456.333 2281.74 459 2292.39 459C2302.33 459 2309.81 456.984 2314.83 452.951C2319.98 448.789 2322.55 443.39 2322.55 436.756Z" fill="#5D5FEF"/>
</svg>
